<svg xmlns="http://www.w3.org/2000/svg" viewBox="0 0 32 32" fill="none">
  <rect width="32" height="32" rx="8" fill="#00A878"/>
  <path d="M14 10C11.5 7.5 7.5 9 6 12C4.5 15 6 19.5 10 21C11.5 21.5 13 21 14 19.5C15.5 17.5 17 14.5 17 13C17 11.5 15.5 10 14 10Z" fill="white"/>
  <path d="M17 13C18.5 14.5 21.5 17 24 15.5C25.5 14.5 25.5 12.5 24 11C22.5 9.5 19.5 9.5 17 13Z" fill="#FF6B35"/>
  <path d="M10 21C8.5 23 7 26 5.5 28.5" stroke="white" stroke-width="1.5" stroke-linecap="round"/>
  <circle cx="8.5" cy="13" r="1" fill="#00A878"/>
</svg>
