<svg xmlns="http://www.w3.org/2000/svg" viewBox="0 0 200 50" fill="none">
  <!-- Hummingbird icon -->
  <g transform="translate(0,5)">
    <path d="M18 8C14 4 8 6 6 10C4 14 6 20 12 22C14 23 16 22 18 20C20 18 22 14 22 12C22 10 20 8 18 8Z" fill="#00A878"/>
    <path d="M22 12C24 14 28 18 32 16C34 15 34 12 32 10C30 8 26 8 22 12Z" fill="#FF6B35"/>
    <path d="M12 22C10 24 8 28 6 32" stroke="#00A878" stroke-width="2" stroke-linecap="round"/>
    <circle cx="10" cy="12" r="1.5" fill="white"/>
  </g>
  <!-- Text -->
  <text x="42" y="34" font-family="Inter, system-ui, sans-serif" font-size="28" font-weight="800" fill="#1A1A2E" letter-spacing="-0.5">
    COL<tspan fill="#00A878">HYBRI</tspan>
  </text>
</svg>
